<?xml version="1.0" encoding="utf-8"?>
<!-- Generator: Adobe Illustrator 16.0.0, SVG Export Plug-In . SVG Version: 6.00 Build 0)  -->
<!DOCTYPE svg PUBLIC "-//W3C//DTD SVG 1.1//EN" "http://www.w3.org/Graphics/SVG/1.1/DTD/svg11.dtd">
<svg version="1.1" id="Layer_1" xmlns="http://www.w3.org/2000/svg" xmlns:xlink="http://www.w3.org/1999/xlink" x="0px" y="0px"
	 width="24px" height="24px" viewBox="0 0 24 24" enable-background="new 0 0 24 24" xml:space="preserve">
<g>
	<g>
		<path fill="#010101" d="M21.83,12.428l2.125-2.125l-1.851-1.851l-2.125,2.125L17.872,8.47l-1.849,1.85l2.107,2.107l-2.154,2.153
			l1.851,1.852l2.154-2.154l2.169,2.17l1.85-1.85L21.83,12.428z M7.579,11.556C6.776,10.572,6.425,9.583,6.35,8.653
			c0.058,0.064,0.119,0.13,0.185,0.195c0.705,1.994,2.009,3.49,3.772,3.49c1.831,0,3.115-1.519,3.797-3.516
			c0.054-0.054,0.103-0.106,0.15-0.159c0.262,0.742,0.026,1.745-1.58,2.987c0,0,1.764-0.382,2.479-1.715
			c0.814-1.521,2.228-9.093-5.24-9.907c-2.261-0.247-2.889,1.189-3.02,1.589C1.724,8.504,7.579,11.556,7.579,11.556z M8.084,3.937
			c0.841,1.022,2.238,2.221,4.543,3.189c0,0,0.396,0.165,0.808,0.486c-0.483,2.062-1.592,3.76-3.128,3.76
			c-1.98,0-3.248-2.815-3.388-5.598C7.306,4.936,7.792,4.287,8.084,3.937z M19.777,15.896l-1.243,1.243l-0.707,0.708l-0.696-0.696
			l-2.057,0.587l1.315,1.656l-1.963,2.281c-0.375,0.139-0.762,0.256-1.154,0.354l2.281-2.65l-1.584-1.995l2.64-0.754l-1.341-1.341
			l-0.707-0.708l0.707-0.707l0.385-0.385l-0.646-1.368l-0.954-0.349l-0.287-0.168l-0.488,0.834l0.271,0.159
			c-0.782,1.018-1.96,1.615-3.229,1.615c-1.279,0-2.459-0.576-3.244-1.563l0.342-0.178l-0.454-0.85l-0.278,0.148l-0.945,0.348
			l-2.069,4.38l3.105,0.887l-1.583,1.995l2.281,2.651c-0.393-0.1-0.779-0.217-1.155-0.354l-1.962-2.28l1.316-1.658l-2.908-0.83
			l2.114-4.473l-0.566,0.208l-0.035,0.016C4.244,12.672,1.589,13.936,0.462,17C0.233,17.623,0.067,18.319,0,19.096
			c0.976,1.188,2.153,2.203,3.477,2.998c0.06-0.002,0.118-0.002,0.18-0.005c0.172,0.149,0.364,0.29,0.574,0.423
			c0.658,0.413,1.497,0.742,2.467,0.975C7.867,23.819,9.099,24,10.374,24c1.449,0,2.842-0.232,4.148-0.657
			c0.752-0.209,1.447-0.487,2.021-0.847c0.202-0.125,0.391-0.26,0.561-0.406c0.057,0.002,0.11,0.002,0.166,0.004
			c1.324-0.795,2.5-1.811,3.478-2.998c-0.067-0.777-0.233-1.474-0.462-2.096C20.14,16.602,19.966,16.235,19.777,15.896z
			 M10.372,22.389c-0.324,0-0.644-0.017-0.961-0.041l-2.8-9.246c0.862,1.057,2.126,1.691,3.502,1.75
			c-0.112,0.051-0.191,0.162-0.191,0.293c0,0.097,0.043,0.183,0.109,0.24c-0.219,0.086-0.375,0.297-0.375,0.547
			c0,0.271,0.183,0.494,0.43,0.563c-0.098,0.056-0.165,0.16-0.165,0.279c0,0.179,0.144,0.322,0.322,0.322
			c0.178,0,0.322-0.145,0.322-0.322c0-0.119-0.067-0.225-0.165-0.279c0.248-0.068,0.43-0.293,0.43-0.563
			c0-0.25-0.155-0.461-0.374-0.547c0.066-0.059,0.109-0.145,0.109-0.24c0-0.127-0.075-0.236-0.183-0.289
			c1.438-0.02,2.768-0.696,3.659-1.844l-2.832,9.346C10.933,22.377,10.653,22.389,10.372,22.389z"/>
	</g>
</g>
</svg>
