<?xml version="1.0" encoding="iso-8859-1"?>
<!-- Generator: Adobe Illustrator 18.0.0, SVG Export Plug-In . SVG Version: 6.00 Build 0)  -->
<!DOCTYPE svg PUBLIC "-//W3C//DTD SVG 1.1//EN" "http://www.w3.org/Graphics/SVG/1.1/DTD/svg11.dtd">
<svg version="1.1" id="Capa_1" xmlns="http://www.w3.org/2000/svg" xmlns:xlink="http://www.w3.org/1999/xlink" x="0px" y="0px"
	 viewBox="0 0 480.286 480.286" style="enable-background:new 0 0 480.286 480.286;" xml:space="preserve">
<g>
	<path d="M458.21,279.163l-53.049-53.057c-3.003-3.003-8.32-3.003-11.322,0L228.694,391.25c-1.009,1.009-1.73,2.26-2.088,3.637
		l-18.768,71.816c-0.719,2.751,0.079,5.676,2.088,7.686c1.517,1.526,3.565,2.346,5.661,2.346c0.673,0,1.354-0.086,2.026-0.258
		l71.823-18.768c1.377-0.358,2.628-1.079,3.637-2.086L458.21,290.485C461.337,287.358,461.337,282.291,458.21,279.163z
		 M250.91,451.22l-17.813-17.821l5.474-20.949l33.296,33.288L250.91,451.22z M287.413,438.638l-41.734-41.726l124.567-124.568
		l41.734,41.726L287.413,438.638z M423.303,302.748l-41.733-41.726l17.93-17.93l41.726,41.732L423.303,302.748z"/>
	<path d="M199.37,435.792l-19.471,27.54c-4.747,0.548-9.548,0.922-14.436,0.931l39.56-147.511
		c-12.628,7.155-26.038,10.978-39.731,10.978c-14.208,0-28.08-4.215-41.108-11.895l38.887,148.34
		c-5.105-0.085-10.134-0.516-15.084-1.189l-46.786-66.185l22.061-25.281c1.899-2.181,2.477-5.216,1.508-7.945
		c-0.97-2.729-3.339-4.715-6.193-5.208L74.7,350.822l11.558-45.956l17.086-5.091c-4.128-4.012-8.14-8.352-11.957-13.153
		l-49.78,14.843c-15.451,4.605-24.679,20.401-21.112,36.119l7.522,33.107c14.561,64.099,71.543,109.594,137.275,109.594
		c9.595,0,18.963-1.079,28.081-2.933c-0.469-1.22-0.892-2.433-1.158-3.707c-0.751-3.581-0.828-7.327,0.133-10.994L199.37,435.792z"
		/>
	<path d="M227.247,299.775l14.42,4.301l10.361,41.193l41.828-41.827c-1.557-0.766-3.16-1.47-4.88-1.978l-49.772-14.835
		C235.387,291.432,231.375,295.764,227.247,299.775z"/>
	<path d="M245.029,352.269l-35.479,6.1c-2.854,0.493-5.223,2.479-6.193,5.208c-0.969,2.729-0.391,5.764,1.51,7.945l10.086,11.566
		C215.729,382.008,245.029,352.269,245.029,352.269z"/>
	<path d="M278.92,183.145c-2.481-9.37-8.134-16.438-15.623-19.659c1.508-6.908,2.462-14.471,2.462-21.825
		c0-12.809-2.487-25.009-6.857-36.269c-8.078-20.846-22.888-38.261-41.789-49.686c0.844-3.238,1.376-6.569,1.376-10.025
		C218.488,20.448,194.67,0,165.292,0c-29.387,0-53.198,20.448-53.198,45.682c0,3.456,0.532,6.787,1.376,10.025
		c-18.893,11.417-33.703,28.831-41.781,49.663c-4.37,11.268-6.865,23.475-6.865,36.291c0,7.269,1.007,14.959,2.489,21.813
		c-7.503,3.223-13.165,10.295-15.648,19.67c-2.394,9.024-1.768,19.549,1.743,29.621c5.514,15.836,17.251,27.503,30.043,30.185
		c15.89,33.999,45.088,68.766,81.842,68.766c36.729,0,65.912-34.712,81.81-68.695c12.613-2.55,24.514-14.279,30.074-30.255
		C280.687,202.694,281.312,192.169,278.92,183.145z M262.053,207.503c-4.529,13.004-13.709,20.019-20.208,20.019h-0.006
		c-3.027-0.063-6.194,1.845-7.484,4.809c-13.356,30.638-38.52,63.371-69.063,63.371c-30.545,0-55.707-32.733-69.063-63.371
		c-1.275-2.924-4.465-4.809-7.648-4.809c-6.342,0-15.521-7.015-20.049-20.027c-2.441-6.99-2.948-14.373-1.384-20.252
		c0.741-2.807,2.63-7.754,6.982-9.26c0.429-0.148,3.794-1,4.902-1.305c17.784-4.883,88.55-22.552,126.774-74.437
		c0,0,28.824,64.388,45.346,74.139c2.31,1.363,4.872,1.456,5.317,1.611c4.332,1.51,6.225,6.444,6.968,9.252
		C265,193.122,264.492,200.505,262.053,207.503z"/>
</g>
<g>
</g>
<g>
</g>
<g>
</g>
<g>
</g>
<g>
</g>
<g>
</g>
<g>
</g>
<g>
</g>
<g>
</g>
<g>
</g>
<g>
</g>
<g>
</g>
<g>
</g>
<g>
</g>
<g>
</g>
</svg>
