<?xml version="1.0" encoding="iso-8859-1"?>
<!-- Generator: Adobe Illustrator 19.0.0, SVG Export Plug-In . SVG Version: 6.00 Build 0)  -->
<svg xmlns="http://www.w3.org/2000/svg" xmlns:xlink="http://www.w3.org/1999/xlink" version="1.1" id="Layer_1" x="0px" y="0px" viewBox="0 0 490 490" style="enable-background:new 0 0 490 490;" xml:space="preserve" width="512" height="512">
<g>
	<path style="fill:#38BBF5;" d="M490,245c0,91.42-50.08,171.15-124.3,213.25C330.08,478.46,288.89,490,245,490   c-25.87,0-50.79-4.01-74.2-11.44c-16.3-5.17-31.87-12.01-46.5-20.31C50.08,416.16,0,336.43,0,245C0,109.69,109.69,0,245,0   S490,109.69,490,245z"/>
	<g>
		<path style="fill:#151A1C;" d="M261.06,104.26c-4.53,5.25-9.87,10.38-16.06,15.3l-93.8,57.17    c-44.43,32.81-99.57-17.72-99.57-17.72s59.99,20.07,59.99-51C111.62,18.02,158.55,0,220.8,1.18    C278.21,2.28,301.15,57.88,261.06,104.26z"/>
		<path style="fill:#2AB09A;" d="M365.7,430.26v27.99C330.08,478.46,288.89,490,245,490c-25.87,0-50.79-4.01-74.2-11.44    c-16.3-5.17-31.87-12.01-46.5-20.31v-27.99c0-33.77,18.38-63.25,45.7-78.96c7.41-4.27,15.47-7.52,24-9.56    c4.51-1.09,9.15-1.84,13.9-2.22c2.46-0.2,4.94-0.3,7.45-0.3h59.29c7.01,0,13.83,0.78,20.38,2.28c0.33,0.08,0.66,0.15,0.98,0.23    c8.53,2.05,16.59,5.3,24,9.57C347.31,367.02,365.7,396.5,365.7,430.26z"/>
		<path style="fill:#44D6BE;" d="M365.7,430.26v27.99C330.08,478.46,288.89,490,245,490c-25.87,0-50.79-4.01-74.2-11.44v-48.3    c0-50.28,40.77-91.04,91.06-91.04h12.78C324.94,339.22,365.7,379.98,365.7,430.26z"/>
		<path style="fill:#F2EFEA;" d="M286,376.27c0,21.25-16.17,38.73-36.88,40.8c-1.35,0.13-2.73,0.2-4.12,0.2    c-1.38,0-2.75-0.07-4.1-0.2c-20.72-2.06-36.9-19.54-36.9-40.8c0-22.64,18.36-41,41-41S286,353.63,286,376.27z"/>
		<polyline style="fill:#D8D4CE;" points="244.989,376.49 204,399.27 191.531,341.27 217,326.27   "/>
		<polyline style="fill:#D8D4CE;" points="244.989,376.49 285.979,399.27 298.448,341.27 272.979,326.27   "/>
		<g>
			<path style="fill:#EA9D88;" d="M277.476,304.148v39.865c0,14.595-9.623,26.931-22.878,31.028     c-3.034,0.941-6.268,1.451-9.612,1.451c-17.939,0-32.479-14.54-32.479-32.479v-39.865H277.476z"/>
			<path style="fill:#F6C2AA;" d="M277.476,341.488v2.525c0,14.595-9.623,26.931-22.878,31.028     c-11.959-3.676-20.951-14.075-22.612-26.798c2.17,0.133,4.352,0.199,6.544,0.199c6.146,0,12.17-0.487,18.039-1.451     C263.8,345.829,270.788,343.969,277.476,341.488z"/>
		</g>
		<g>
			<path style="fill:#F6C2AA;" d="M154.416,238.813c0,15.038-10.985,27.507-25.37,29.821c-1.572,0.255-3.189,0.388-4.839,0.388     c-16.688,0-30.209-13.521-30.209-30.209s13.521-30.209,30.209-30.209c1.65,0,3.267,0.133,4.839,0.388     C143.431,211.306,154.416,223.775,154.416,238.813z"/>
			<path style="fill:#EA9D88;" d="M154.416,238.813c0,15.038-10.985,27.507-25.37,29.821c-2.613-9.501-4.009-19.501-4.009-29.821     c0-10.321,1.395-20.32,4.009-29.821C143.431,211.306,154.416,223.775,154.416,238.813z"/>
			<circle style="fill:#EA9D88;" cx="124.208" cy="238.813" r="10.797"/>
			<path style="fill:#F6C2AA;" d="M335.568,238.813c0,15.038,10.985,27.507,25.37,29.821c1.572,0.255,3.189,0.388,4.839,0.388     c16.688,0,30.209-13.521,30.209-30.209s-13.521-30.209-30.209-30.209c-1.65,0-3.267,0.133-4.839,0.388     C346.553,211.306,335.568,223.775,335.568,238.813z"/>
			<path style="fill:#EA9D88;" d="M335.568,238.813c0,15.038,10.985,27.507,25.37,29.821c2.613-9.501,4.009-19.501,4.009-29.821     c0-10.321-1.395-20.32-4.009-29.821C346.553,211.306,335.568,223.775,335.568,238.813z"/>
			<circle style="fill:#EA9D88;" cx="365.776" cy="238.813" r="10.797"/>
		</g>
		<path style="fill:#EA9D88;" d="M357.39,179.96v42.8c0,55.93-40.86,102.33-94.36,110.94c-0.18,0.03-0.37,0.06-0.55,0.09    c-5.69,0.91-11.53,1.36-17.49,1.36c-62.07,0-112.39-50.32-112.39-112.39v-42.8c0-13.07,2.23-25.63,6.35-37.3    c15.37-43.74,57.05-75.1,106.04-75.1H245c5.95,0,11.8,0.46,17.5,1.36C316.26,77.32,357.39,123.84,357.39,179.96z"/>
		<path style="fill:#F6C2AA;" d="M357.387,179.961v42.8c0,55.93-40.86,102.33-94.36,110.94c-0.18,0.03-0.37,0.06-0.55,0.09    c-53.76-8.4-94.88-54.92-94.88-111.03v-42.8c0-56.12,41.13-102.64,94.9-111.04C316.257,77.321,357.387,123.841,357.387,179.961z"/>
		<g>
			<circle style="fill:#EA9D88;" cx="307.492" cy="252.271" r="14"/>
			<circle style="fill:#EA9D88;" cx="182.492" cy="252.271" r="14"/>
		</g>
		<path style="fill:#EA9D88;" d="M305.35,213.269c0-10.309-8.357-18.667-18.667-18.667c-10.309,0-18.667,8.357-18.667,18.667"/>
		<path style="fill:#EA9D88;" d="M221.976,213.269c0-10.309-8.357-18.667-18.667-18.667c-10.309,0-18.667,8.357-18.667,18.667"/>
		<g>
			<g>
				<path style="fill:#FFFFFF;" d="M232.55,221.21c0,20.51-16.62,37.13-37.12,37.13c-3.1,0-6.12-0.38-9-1.1      c-16.16-4.02-28.13-18.62-28.13-36.03c0-17.4,11.97-32,28.13-36.02c2.88-0.72,5.9-1.1,9-1.1      C215.93,184.09,232.55,200.71,232.55,221.21z"/>
				<path style="fill:#FFFFFF;" d="M331.78,221.21c0,20.51-16.62,37.13-37.12,37.13c-3.1,0-6.12-0.38-9-1.1      c-16.15-4.02-28.12-18.62-28.12-36.03c0-17.4,11.97-32,28.12-36.02c2.88-0.72,5.9-1.1,9-1.1      C315.16,184.09,331.78,200.71,331.78,221.21z"/>
			</g>
			<g>
				<path style="fill:#C1DCE5;" d="M214.55,221.21c0,17.41-11.97,32.01-28.12,36.03c-16.16-4.02-28.13-18.62-28.13-36.03      c0-17.4,11.97-32,28.13-36.02C202.58,189.21,214.55,203.81,214.55,221.21z"/>
				<path style="fill:#C1DCE5;" d="M313.78,221.21c0,17.41-11.97,32.01-28.12,36.03c-16.15-4.02-28.12-18.62-28.12-36.03      c0-17.4,11.97-32,28.12-36.02C301.81,189.21,313.78,203.81,313.78,221.21z"/>
			</g>
			<g>
				<path style="fill:#233559;" d="M195.425,264.252c-23.731,0-43.038-19.307-43.038-43.038c0-23.731,19.307-43.038,43.038-43.038      s43.038,19.307,43.038,43.038C238.464,244.945,219.156,264.252,195.425,264.252z M195.425,190.009      c-17.207,0-31.205,13.998-31.205,31.205s13.999,31.205,31.205,31.205s31.205-13.999,31.205-31.205      S212.632,190.009,195.425,190.009z"/>
				<path style="fill:#233559;" d="M294.657,264.252c-23.731,0-43.038-19.307-43.038-43.038c0-23.731,19.307-43.038,43.038-43.038      s43.038,19.307,43.038,43.038C337.696,244.945,318.388,264.252,294.657,264.252z M294.657,190.009      c-17.207,0-31.205,13.998-31.205,31.205s13.999,31.205,31.205,31.205s31.205-13.999,31.205-31.205      S311.864,190.009,294.657,190.009z"/>
			</g>
			<rect x="232.547" y="215.297" style="fill:#233559;" width="24.988" height="11.833"/>
			<polygon style="fill:#233559;" points="357.39,195.95 357.39,208.8 333.29,219 328.68,208.1    "/>
			<polygon style="fill:#233559;" points="160.87,208.1 156.26,219 132.6,208.98 132.6,196.14    "/>
		</g>
		<circle style="fill:#233559;" cx="203.309" cy="221.216" r="12.75"/>
		<circle style="fill:#233559;" cx="286.683" cy="221.216" r="12.75"/>
		<path style="fill:#EA9D88;" d="M257.746,258.318h-25.5c-3.038,0-5.5-2.462-5.5-5.5l0,0c0-3.038,2.462-5.5,5.5-5.5h25.5    c3.038,0,5.5,2.462,5.5,5.5l0,0C263.246,255.856,260.784,258.318,257.746,258.318z"/>
		<path style="fill:#EA9D88;" d="M244.996,276.658c9.412,0,18.823,2.358,27.402,7.074c2.42,1.33,3.303,4.37,1.973,6.79    c-1.331,2.42-4.371,3.302-6.79,1.973c-14.142-7.775-31.028-7.774-45.169,0c-2.418,1.33-5.459,0.448-6.79-1.973    c-1.331-2.42-0.447-5.46,1.973-6.79C226.173,279.016,235.585,276.658,244.996,276.658z"/>
		<circle style="fill:#FFFFFF;" cx="207.996" cy="218.966" r="5.463"/>
		<circle style="fill:#FFFFFF;" cx="291.997" cy="218.966" r="5.463"/>
		<path style="fill:#233559;" d="M369.085,156.817c0,58.85-11.69,65.94-11.69,65.94s-21.31-103.2-112.39-103.2h-0.02    c-28.76,0-50.56,10.29-66.93,24.37c-35.48,30.51-45.46,78.83-45.46,78.83s-11.69-7.09-11.69-65.94c0-58.85,52.82-89.5,106.58-97.9    c5.012-0.791,10.145-1.221,15.355-1.318c0.71-0.027,1.425-0.042,2.145-0.042h0.02c5.95,0,11.8,0.46,17.5,1.36    C316.265,67.317,369.085,97.967,369.085,156.817z"/>
		<path style="fill:#233559;" d="M281.21,54.78c-6.17-1.59-12.43-2.88-18.71-3.86c-5.7-0.9-11.55-1.36-17.5-1.36h-0.02    c-0.72,0-1.43,0.01-2.14,0.04c-5.21,0.1-10.34,0.53-15.36,1.32c-20.82,3.25-41.5,9.84-59.03,20.12    C157.88,37.62,184.37,4.1,220.8,1.18C258.06,1.89,280.81,25.57,281.21,54.78z"/>
		<path style="fill:#233559;" d="M273.56,98.225c-17.766,12.219-22.263,36.527-10.044,54.294    c12.219,17.766,36.527,22.263,54.294,10.044"/>
		<path style="fill:#151A1C;" d="M178.055,143.927c-35.48,30.51-45.46,78.83-45.46,78.83s-11.69-7.09-11.69-65.94    c0-58.85,52.82-89.5,106.58-97.9c5.012-0.791,10.145-1.221,15.355-1.318C199.811,59.213,175.064,109.239,178.055,143.927z"/>
	</g>
	<g>
		<path style="fill:#FF804A;" d="M436.58,390.95c0,2.43-0.11,4.83-0.34,7.2c-22.84,28.49-51.91,51.76-85.15,67.75    c-37.08-4.84-65.7-36.55-65.7-74.95c0-41.75,33.84-75.59,75.59-75.59S436.58,349.2,436.58,390.95z"/>
		<rect x="312.784" y="375.066" style="fill:#F2EFEA;" width="96.401" height="31.774"/>
	</g>
</g>















</svg>
